<svg width="51" height="51" viewBox="0 0 51 51" fill="none" xmlns="http://www.w3.org/2000/svg">
<path fill-rule="evenodd" clip-rule="evenodd" d="M25.5999 50.5002C39.315 50.5002 50.4333 39.3819 50.4333 25.6668C50.4333 11.9518 39.315 0.833496 25.5999 0.833496C11.8849 0.833496 0.766602 11.9518 0.766602 25.6668C0.766602 39.3819 11.8849 50.5002 25.5999 50.5002Z" fill="#3B4857"/>
<path fill-rule="evenodd" clip-rule="evenodd" d="M31.8086 15.7333V13.25H29.3253V15.7333H21.8753V13.25H19.392V15.7333H14.4253V36.8417H36.7753V15.7333H31.8086ZM19.3921 18.2168V20.7002H21.8754V18.2168H29.3254V20.7002H31.8088V18.2168H34.2921V23.1835H16.9088V18.2168H19.3921ZM16.9088 34.3585V25.6668H34.2921V34.3585H16.9088Z" fill="#62D7DC"/>
</svg>
